<?xml version="1.0" encoding="utf-8"?>
<!-- Generator: Adobe Illustrator 24.1.3, SVG Export Plug-In . SVG Version: 6.00 Build 0)  -->
<svg version="1.1" id="Layer_1" xmlns="http://www.w3.org/2000/svg" xmlns:xlink="http://www.w3.org/1999/xlink" x="0px" y="0px"
	 viewBox="0 0 12 12" style="enable-background:new 0 0 12 12;" xml:space="preserve">
<style type="text/css">
	.st0{fill:#6C757D;}
</style>
<path class="st0" d="M9.9,9.3L8,7.5c1.5-1.8,1.2-4.4-0.5-5.8C5.8,0.2,3.2,0.5,1.7,2.2C0.2,4,0.5,6.6,2.2,8C3.8,9.3,6,9.3,7.5,8
	l1.8,1.8C9.5,9.7,9.7,9.5,9.9,9.3z M4.9,8.3C3,8.2,1.5,6.7,1.5,4.9C1.5,3,3,1.5,4.9,1.5S8.3,3,8.3,4.9S6.7,8.3,4.9,8.3z"/>
</svg>
